<svg xmlns="http://www.w3.org/2000/svg" viewBox="0 0 512 512">
  <rect width="512" height="512" fill="#C22251"/>
  <g fill="#FFFFFA" transform="translate(64 64) scale(0.75)">
    <path d="M256 128c-50 0-90 36-90 84 0 28 14 50 30 66-8 14-12 30-10 46 1 6 6 10 12 10 6 0 11-4 12-10 1-12 6-22 14-30 14 8 28 12 42 12 50 0 90-36 90-84 0-50-44-94-100-94zm0 152c-32 0-58-26-58-58s26-58 58-58 58 26 58 58-26 58-58 58z"/>
    <circle cx="232" cy="222" r="10"/>
    <circle cx="280" cy="222" r="10"/>
    <path d="M256 250c-12 0-22-8-22-18h-12c0 18 16 30 34 30s34-12 34-30h-12c0 10-10 18-22 18z"/>
  </g>
</svg>
