<svg xmlns="http://www.w3.org/2000/svg" viewBox="0 0 512 512">
  <rect width="512" height="512" rx="96" fill="#1d4ed8"/>
  <g fill="#ffffff">
    <path d="M256 96c-66.3 0-120 53.7-120 120 0 30.9 11.7 59 30.9 80.3-7.8 23.5-8.9 49-2.9 73.3 1 4 4.6 6.7 8.7 6.7h2.2c4.2-.4 7.6-3.6 8.2-7.8 2.3-15.7 7.3-30.6 14.6-44.1 17 11 37.2 17.5 58.3 17.5 66.3 0 120-53.7 120-120S322.3 96 256 96zm0 208c-48.6 0-88-39.4-88-88s39.4-88 88-88 88 39.4 88 88-39.4 88-88 88z"/>
    <circle cx="216" cy="216" r="12"/>
    <circle cx="296" cy="216" r="12"/>
    <path d="M256 256c-13.3 0-24-10.7-24-24h-16c0 22.1 17.9 40 40 40s40-17.9 40-40h-16c0 13.3-10.7 24-24 24z"/>
  </g>
</svg>
